<svg xmlns="http://www.w3.org/2000/svg" xmlns:xlink="http://www.w3.org/1999/xlink" width="500" zoomAndPan="magnify" viewBox="0 0 375 374.999991" height="500" preserveAspectRatio="xMidYMid meet" version="1.0"><defs><clipPath id="88c2e77d54"><path d="M 50.589844 37.5 L 324.339844 37.5 L 324.339844 337.5 L 50.589844 337.5 Z M 50.589844 37.5 " clip-rule="nonzero"/></clipPath></defs><g clip-path="url(#88c2e77d54)"><path fill="#2563eb" d="M 307.917969 156.074219 L 308.359375 156.074219 C 308.359375 149.761719 308.246094 143.441406 308.378906 137.132812 C 308.964844 108.992188 290.101562 82.578125 260.960938 73.027344 C 241.96875 66.800781 223.820312 70.117188 206.660156 79.679688 C 200.285156 83.230469 193.703125 84.953125 186.371094 84.699219 C 179.800781 84.46875 174.203125 82.050781 168.578125 79.019531 C 142.8125 65.160156 117.714844 66.734375 94.167969 83.859375 C 75.925781 97.132812 66.105469 115.3125 66.214844 138.316406 C 66.265625 149.78125 66.1875 161.25 66.222656 172.71875 C 66.308594 197.992188 77.40625 217.144531 99.371094 229.277344 C 117.375 239.222656 135.875 248.324219 154.441406 257.199219 C 175.058594 267.058594 196.425781 267.734375 217.195312 258.207031 C 237.523438 248.882812 257.464844 238.640625 277.140625 227.992188 C 294.796875 218.4375 304.929688 202.8125 307.707031 183.082031 C 308.949219 174.242188 307.917969 165.089844 307.917969 156.074219 M 323.75 188.175781 C 323.75 203.894531 325.121094 219.753906 323.484375 235.300781 C 319.035156 277.453125 300.835938 311.90625 263.585938 334.539062 C 262.273438 335.339844 260.890625 336.066406 259.460938 336.625 C 255.820312 338.050781 252.339844 337.066406 250.171875 334.128906 C 247.828125 330.957031 247.660156 326.585938 250.394531 323.832031 C 253 321.203125 256.378906 319.359375 259.019531 316.765625 C 265.605469 310.296875 271.996094 303.625 278.394531 296.96875 C 280.703125 294.566406 282.628906 291.765625 285.0625 289.507812 C 288.007812 286.777344 289.289062 283.726562 288.195312 279.84375 C 287.328125 276.761719 285.390625 274.671875 282.140625 274.042969 C 277.90625 273.226562 275.179688 275.296875 272.652344 278.496094 C 267.246094 285.332031 262.203125 292.65625 255.839844 298.503906 C 240.636719 312.460938 221.9375 319.359375 201.714844 321.71875 C 179.386719 324.328125 157.769531 321.257812 137.429688 311.179688 C 123.394531 304.222656 111.839844 294.449219 103.640625 280.941406 C 102.90625 279.730469 102.152344 278.527344 101.300781 277.402344 C 98.5 273.6875 93.714844 272.867188 90.035156 275.410156 C 86.488281 277.863281 85.328125 283.191406 88.222656 286.703125 C 97.683594 298.183594 106.09375 310.703125 118.960938 318.960938 C 120.257812 319.792969 121.457031 320.785156 122.652344 321.761719 C 126.691406 325.066406 127.589844 329.09375 125.179688 332.953125 C 122.695312 336.933594 117.46875 338.628906 113.371094 335.808594 C 105.332031 330.285156 97.175781 324.738281 89.988281 318.191406 C 71.914062 301.730469 61.429688 280.703125 55.304688 257.296875 C 52.355469 246.023438 50.675781 234.59375 50.691406 222.925781 C 50.722656 196.378906 50.382812 169.828125 50.800781 143.289062 C 51.375 107.128906 67.308594 79.867188 99.53125 62.800781 C 109.71875 57.410156 119.941406 51.78125 130.738281 47.902344 C 158.59375 37.90625 187.324219 35.226562 216.660156 40.113281 C 230.683594 42.453125 244.671875 45.425781 257.117188 52.292969 C 271.414062 60.175781 286.820312 66.320312 298.476562 78.683594 C 311.726562 92.738281 320.988281 108.808594 322.6875 127.972656 C 324.324219 146.394531 323.867188 165.007812 324.324219 183.539062 C 324.359375 185.082031 324.328125 186.628906 324.328125 188.175781 Z M 323.75 188.175781 " fill-opacity="1" fill-rule="nonzero"/></g><path fill="#2563eb" d="M 159.027344 155.882812 C 158.925781 140.601562 146.632812 128 131.769531 127.953125 C 117.074219 127.90625 104.351562 140.625 104.386719 155.324219 C 104.421875 170.675781 117.023438 183.328125 132.113281 183.175781 C 146.855469 183.023438 159.125 170.582031 159.027344 155.882812 M 270.664062 155.84375 C 270.621094 140.429688 258.105469 127.824219 242.957031 127.941406 C 228.410156 128.050781 215.882812 140.605469 215.765625 155.179688 C 215.648438 170.371094 228.300781 183.191406 243.386719 183.175781 C 258.363281 183.160156 270.707031 170.796875 270.664062 155.84375 M 295.175781 155.757812 C 295.175781 161.171875 295.054688 166.585938 295.195312 171.996094 C 295.738281 192.683594 286.226562 207.644531 268.441406 217.191406 C 250.871094 226.625 232.976562 235.488281 215.003906 244.144531 C 196.367188 253.117188 177.40625 253.289062 158.765625 244.035156 C 140.671875 235.050781 122.527344 226.117188 104.847656 216.355469 C 88.105469 207.105469 79.402344 192.464844 79.4375 173.023438 C 79.457031 161.296875 79.394531 149.570312 79.421875 137.84375 C 79.480469 111.046875 99.300781 88.410156 125.917969 84.460938 C 139.039062 82.515625 151.246094 84.726562 162.707031 91.394531 C 179.789062 101.332031 196.875 101.144531 213.960938 91.316406 C 247.328125 72.117188 288.882812 91.59375 294.640625 129.515625 C 295.9375 138.078125 294.828125 147 294.828125 155.753906 C 294.945312 155.753906 295.058594 155.757812 295.175781 155.757812 " fill-opacity="1" fill-rule="nonzero"/></svg>