<svg xmlns="http://www.w3.org/2000/svg" xmlns:xlink="http://www.w3.org/1999/xlink" width="500" zoomAndPan="magnify" viewBox="0 0 375 374.999991" height="500" preserveAspectRatio="xMidYMid meet" version="1.0"><defs><clipPath id="119aa33da9"><path d="M 40.902344 35.5625 L 314.652344 35.5625 L 314.652344 335.5625 L 40.902344 335.5625 Z M 40.902344 35.5625 " clip-rule="nonzero"/></clipPath></defs><g clip-path="url(#119aa33da9)"><path fill="#6d28d9" d="M 298.285156 154.132812 L 298.726562 154.132812 C 298.726562 147.820312 298.613281 141.503906 298.746094 135.195312 C 299.332031 107.054688 280.464844 80.640625 251.320312 71.085938 C 232.324219 64.863281 214.171875 68.175781 197.007812 77.742188 C 190.632812 81.292969 184.046875 83.011719 176.710938 82.757812 C 170.144531 82.53125 164.542969 80.109375 158.914062 77.082031 C 133.144531 63.222656 108.042969 64.796875 84.488281 81.921875 C 66.246094 95.191406 56.421875 113.371094 56.53125 136.378906 C 56.582031 147.84375 56.503906 159.3125 56.539062 170.78125 C 56.625 196.050781 67.722656 215.207031 89.691406 227.339844 C 107.703125 237.285156 126.203125 246.382812 144.777344 255.261719 C 165.398438 265.117188 186.769531 265.796875 207.542969 256.265625 C 227.878906 246.945312 247.820312 236.699219 267.5 226.054688 C 285.160156 216.5 295.296875 200.875 298.074219 181.144531 C 299.316406 172.304688 298.285156 163.148438 298.285156 154.132812 M 314.121094 186.234375 C 314.121094 201.957031 315.496094 217.816406 313.855469 233.363281 C 309.40625 275.515625 291.203125 309.96875 253.945312 332.601562 C 252.632812 333.398438 251.25 334.125 249.816406 334.6875 C 246.175781 336.109375 242.695312 335.128906 240.527344 332.191406 C 238.183594 329.015625 238.015625 324.648438 240.75 321.890625 C 243.355469 319.265625 246.738281 317.421875 249.378906 314.824219 C 255.964844 308.355469 262.359375 301.6875 268.757812 295.03125 C 271.066406 292.625 272.988281 289.828125 275.425781 287.570312 C 278.371094 284.839844 279.652344 281.789062 278.558594 277.902344 C 277.691406 274.824219 275.753906 272.730469 272.503906 272.105469 C 268.269531 271.289062 265.539062 273.359375 263.011719 276.554688 C 257.605469 283.394531 252.5625 290.71875 246.195312 296.5625 C 230.992188 310.523438 212.289062 317.421875 192.058594 319.78125 C 169.726562 322.390625 148.105469 319.320312 127.761719 309.238281 C 113.722656 302.28125 102.164062 292.511719 93.964844 279 C 93.230469 277.792969 92.476562 276.589844 91.625 275.460938 C 88.824219 271.75 84.035156 270.929688 80.359375 273.472656 C 76.8125 275.925781 75.648438 281.253906 78.542969 284.761719 C 88.007812 296.246094 96.421875 308.765625 109.289062 317.023438 C 110.585938 317.855469 111.785156 318.84375 112.980469 319.824219 C 117.019531 323.128906 117.917969 327.15625 115.507812 331.015625 C 113.023438 334.992188 107.796875 336.691406 103.699219 333.871094 C 95.65625 328.347656 87.5 322.800781 80.3125 316.253906 C 62.234375 299.792969 51.742188 278.765625 45.617188 255.359375 C 42.667969 244.085938 40.992188 232.65625 41.003906 220.988281 C 41.039062 194.441406 40.695312 167.890625 41.117188 141.351562 C 41.6875 105.191406 57.625 77.925781 89.855469 60.863281 C 100.042969 55.46875 110.269531 49.84375 121.070312 45.964844 C 148.929688 35.96875 177.667969 33.285156 207.007812 38.175781 C 221.035156 40.515625 235.027344 43.488281 247.476562 50.351562 C 261.773438 58.238281 277.183594 64.382812 288.84375 76.746094 C 302.09375 90.800781 311.359375 106.867188 313.058594 126.035156 C 314.695312 144.457031 314.238281 163.066406 314.695312 181.597656 C 314.730469 183.144531 314.699219 184.691406 314.699219 186.234375 Z M 314.121094 186.234375 " fill-opacity="1" fill-rule="nonzero"/></g><path fill="#6d28d9" d="M 149.363281 153.945312 C 149.261719 138.660156 136.964844 126.058594 122.101562 126.015625 C 107.402344 125.96875 94.675781 138.6875 94.710938 153.386719 C 94.75 168.738281 107.351562 181.390625 122.445312 181.234375 C 137.1875 181.082031 149.460938 168.640625 149.363281 153.945312 M 261.023438 153.90625 C 260.980469 138.492188 248.464844 125.886719 233.308594 126.003906 C 218.761719 126.113281 206.230469 138.664062 206.117188 153.242188 C 206 168.429688 218.652344 181.253906 233.738281 181.238281 C 248.722656 181.222656 261.066406 168.859375 261.023438 153.90625 M 285.542969 153.820312 C 285.542969 159.230469 285.421875 164.648438 285.5625 170.054688 C 286.101562 190.746094 276.589844 205.707031 258.800781 215.253906 C 241.226562 224.6875 223.328125 233.550781 205.351562 242.207031 C 186.710938 251.179688 167.746094 251.347656 149.101562 242.097656 C 131.003906 233.113281 112.855469 224.179688 95.171875 214.417969 C 78.425781 205.167969 69.71875 190.527344 69.753906 171.082031 C 69.777344 159.359375 69.714844 147.632812 69.742188 135.902344 C 69.800781 109.105469 89.625 86.472656 116.246094 82.523438 C 129.371094 80.574219 141.582031 82.789062 153.042969 89.457031 C 170.128906 99.390625 187.21875 99.207031 204.308594 89.375 C 237.683594 70.179688 279.246094 89.65625 285.003906 127.578125 C 286.304688 136.136719 285.195312 145.0625 285.195312 153.816406 C 285.308594 153.816406 285.425781 153.820312 285.542969 153.820312 " fill-opacity="1" fill-rule="nonzero"/></svg>