<svg xmlns="http://www.w3.org/2000/svg" xmlns:xlink="http://www.w3.org/1999/xlink" width="404" zoomAndPan="magnify" viewBox="0 0 303 77.249999" height="103" preserveAspectRatio="xMidYMid meet" version="1.0"><defs><g/><clipPath id="62ed7c43dd"><path d="M 1.457031 6.296875 L 59.394531 6.296875 L 59.394531 70.175781 L 1.457031 70.175781 Z M 1.457031 6.296875 " clip-rule="nonzero"/></clipPath></defs><g clip-path="url(#62ed7c43dd)"><path fill="#2563eb" d="M 55.917969 31.542969 L 56.011719 31.542969 C 56.011719 30.199219 55.988281 28.855469 56.015625 27.511719 C 56.140625 21.519531 52.148438 15.894531 45.980469 13.859375 C 41.960938 12.535156 38.121094 13.242188 34.488281 15.277344 C 33.140625 16.03125 31.746094 16.398438 30.195312 16.34375 C 28.804688 16.296875 27.617188 15.78125 26.425781 15.136719 C 20.972656 12.183594 15.664062 12.519531 10.679688 16.167969 C 6.820312 18.992188 4.742188 22.863281 4.761719 27.761719 C 4.773438 30.203125 4.757812 32.648438 4.765625 35.089844 C 4.78125 40.46875 7.132812 44.550781 11.78125 47.132812 C 15.589844 49.25 19.507812 51.1875 23.4375 53.078125 C 27.800781 55.175781 32.320312 55.320312 36.71875 53.292969 C 41.019531 51.308594 45.242188 49.125 49.40625 46.859375 C 53.140625 44.824219 55.285156 41.496094 55.875 37.296875 C 56.136719 35.414062 55.917969 33.464844 55.917969 31.542969 M 59.269531 38.378906 C 59.269531 41.726562 59.558594 45.105469 59.210938 48.414062 C 58.273438 57.390625 54.417969 64.726562 46.535156 69.546875 C 46.257812 69.71875 45.964844 69.871094 45.664062 69.992188 C 44.890625 70.292969 44.15625 70.085938 43.695312 69.460938 C 43.199219 68.785156 43.164062 67.855469 43.746094 67.265625 C 44.296875 66.707031 45.011719 66.316406 45.570312 65.761719 C 46.964844 64.386719 48.316406 62.964844 49.671875 61.546875 C 50.160156 61.035156 50.566406 60.4375 51.082031 59.957031 C 51.703125 59.378906 51.976562 58.726562 51.742188 57.898438 C 51.558594 57.246094 51.152344 56.800781 50.460938 56.664062 C 49.566406 56.492188 48.988281 56.933594 48.453125 57.613281 C 47.308594 59.070312 46.242188 60.628906 44.894531 61.875 C 41.679688 64.847656 37.722656 66.316406 33.441406 66.816406 C 28.714844 67.375 24.140625 66.71875 19.835938 64.574219 C 16.867188 63.089844 14.417969 61.011719 12.683594 58.132812 C 12.53125 57.875 12.371094 57.621094 12.1875 57.378906 C 11.597656 56.589844 10.582031 56.414062 9.804688 56.957031 C 9.054688 57.480469 8.808594 58.613281 9.421875 59.359375 C 11.421875 61.804688 13.203125 64.472656 15.925781 66.230469 C 16.203125 66.40625 16.457031 66.617188 16.707031 66.828125 C 17.5625 67.53125 17.753906 68.386719 17.242188 69.210938 C 16.71875 70.058594 15.609375 70.417969 14.742188 69.816406 C 13.042969 68.640625 11.316406 67.460938 9.796875 66.066406 C 5.96875 62.5625 3.75 58.082031 2.453125 53.097656 C 1.832031 50.699219 1.476562 48.265625 1.476562 45.78125 C 1.484375 40.128906 1.414062 34.472656 1.5 28.820312 C 1.621094 21.121094 4.996094 15.316406 11.816406 11.683594 C 13.96875 10.535156 16.132812 9.335938 18.417969 8.511719 C 24.316406 6.382812 30.394531 5.8125 36.605469 6.851562 C 39.570312 7.351562 42.53125 7.984375 45.167969 9.445312 C 48.191406 11.125 51.453125 12.433594 53.921875 15.066406 C 56.722656 18.058594 58.683594 21.480469 59.042969 25.5625 C 59.390625 29.484375 59.292969 33.445312 59.390625 37.394531 C 59.398438 37.722656 59.390625 38.050781 59.390625 38.378906 Z M 59.269531 38.378906 " fill-opacity="1" fill-rule="nonzero"/></g><path fill="#2563eb" d="M 24.40625 31.503906 C 24.386719 28.25 21.785156 25.566406 18.636719 25.554688 C 15.527344 25.546875 12.835938 28.253906 12.84375 31.386719 C 12.851562 34.652344 15.515625 37.347656 18.710938 37.316406 C 21.832031 37.28125 24.425781 34.632812 24.40625 31.503906 M 48.035156 31.496094 C 48.023438 28.214844 45.375 25.527344 42.167969 25.554688 C 39.089844 25.578125 36.441406 28.25 36.414062 31.355469 C 36.390625 34.589844 39.066406 37.320312 42.261719 37.316406 C 45.429688 37.3125 48.042969 34.679688 48.035156 31.496094 M 53.222656 31.476562 C 53.222656 32.628906 53.195312 33.78125 53.226562 34.933594 C 53.339844 39.339844 51.328125 42.527344 47.5625 44.558594 C 43.84375 46.566406 40.058594 48.457031 36.253906 50.300781 C 32.308594 52.210938 28.296875 52.246094 24.351562 50.273438 C 20.523438 48.363281 16.679688 46.460938 12.941406 44.382812 C 9.394531 42.410156 7.554688 39.292969 7.5625 35.152344 C 7.566406 32.65625 7.554688 30.160156 7.558594 27.664062 C 7.570312 21.957031 11.765625 17.136719 17.398438 16.296875 C 20.175781 15.878906 22.761719 16.351562 25.1875 17.769531 C 28.800781 19.886719 32.417969 19.847656 36.03125 17.753906 C 43.09375 13.667969 51.890625 17.8125 53.109375 25.890625 C 53.382812 27.710938 53.148438 29.613281 53.148438 31.476562 C 53.171875 31.476562 53.195312 31.476562 53.222656 31.476562 " fill-opacity="1" fill-rule="nonzero"/><g fill="#fafafa" fill-opacity="1"><g transform="translate(76.991389, 53.819776)"><g><path d="M 20.53125 -6.46875 C 21.457031 -6.46875 22.222656 -6.148438 22.828125 -5.515625 C 23.429688 -4.878906 23.734375 -4.128906 23.734375 -3.265625 C 23.734375 -2.335938 23.429688 -1.5625 22.828125 -0.9375 C 22.222656 -0.3125 21.457031 0 20.53125 0 L 5.171875 0 C 4.535156 -0.03125 3.976562 -0.195312 3.5 -0.5 C 3.019531 -0.800781 2.648438 -1.191406 2.390625 -1.671875 C 2.140625 -2.148438 2.015625 -2.675781 2.015625 -3.25 C 2.015625 -3.832031 2.175781 -4.410156 2.5 -4.984375 L 2.546875 -5.03125 L 14.578125 -24.171875 L 5.078125 -24.171875 C 4.210938 -24.171875 3.460938 -24.472656 2.828125 -25.078125 C 2.191406 -25.679688 1.875 -26.445312 1.875 -27.375 C 1.875 -28.269531 2.191406 -29.035156 2.828125 -29.671875 C 3.460938 -30.316406 4.210938 -30.640625 5.078125 -30.640625 L 20.421875 -30.640625 C 21.035156 -30.609375 21.585938 -30.429688 22.078125 -30.109375 C 22.578125 -29.796875 22.960938 -29.390625 23.234375 -28.890625 C 23.503906 -28.398438 23.640625 -27.859375 23.640625 -27.265625 C 23.640625 -26.671875 23.460938 -26.085938 23.109375 -25.515625 L 11.125 -6.46875 Z M 20.53125 -6.46875 "/></g></g></g><g fill="#fafafa" fill-opacity="1"><g transform="translate(103.840687, 53.819776)"><g><path d="M 14 -23.15625 C 15.4375 -23 16.785156 -22.582031 18.046875 -21.90625 C 19.316406 -21.238281 20.40625 -20.382812 21.3125 -19.34375 C 22.226562 -18.3125 22.945312 -17.128906 23.46875 -15.796875 C 24 -14.472656 24.265625 -13.078125 24.265625 -11.609375 L 24.265625 -3.109375 C 24.265625 -2.253906 23.941406 -1.519531 23.296875 -0.90625 C 22.660156 -0.300781 21.941406 0 21.140625 0 C 20.023438 0 19.132812 -0.507812 18.46875 -1.53125 C 18.300781 -1.46875 18.15625 -1.394531 18.03125 -1.3125 C 17.90625 -1.238281 17.773438 -1.171875 17.640625 -1.109375 C 16.878906 -0.753906 16.097656 -0.476562 15.296875 -0.28125 C 14.460938 -0.09375 13.582031 0 12.65625 0 C 10.257812 0 8.117188 -0.644531 6.234375 -1.9375 C 4.347656 -3.238281 2.941406 -4.910156 2.015625 -6.953125 C 1.691406 -7.691406 1.441406 -8.441406 1.265625 -9.203125 C 1.085938 -9.972656 1 -10.773438 1 -11.609375 C 1 -12.429688 1.085938 -13.226562 1.265625 -14 C 1.441406 -14.769531 1.691406 -15.519531 2.015625 -16.25 C 2.941406 -18.332031 4.347656 -20.007812 6.234375 -21.28125 C 8.117188 -22.5625 10.257812 -23.203125 12.65625 -23.203125 C 12.914062 -23.203125 13.148438 -23.203125 13.359375 -23.203125 C 13.566406 -23.203125 13.78125 -23.1875 14 -23.15625 Z M 12.609375 -6.234375 C 13.347656 -6.234375 14.046875 -6.367188 14.703125 -6.640625 C 15.359375 -6.910156 15.925781 -7.285156 16.40625 -7.765625 C 16.882812 -8.242188 17.265625 -8.8125 17.546875 -9.46875 C 17.835938 -10.125 17.984375 -10.835938 17.984375 -11.609375 C 17.984375 -12.304688 17.835938 -12.984375 17.546875 -13.640625 C 17.265625 -14.296875 16.875 -14.867188 16.375 -15.359375 C 15.875 -15.859375 15.296875 -16.25 14.640625 -16.53125 C 13.992188 -16.820312 13.316406 -16.96875 12.609375 -16.96875 C 11.910156 -16.96875 11.238281 -16.820312 10.59375 -16.53125 C 9.957031 -16.25 9.390625 -15.859375 8.890625 -15.359375 C 8.398438 -14.867188 8.007812 -14.296875 7.71875 -13.640625 C 7.425781 -12.984375 7.28125 -12.304688 7.28125 -11.609375 C 7.28125 -10.867188 7.429688 -10.171875 7.734375 -9.515625 C 8.046875 -8.859375 8.445312 -8.289062 8.9375 -7.8125 C 9.4375 -7.332031 10.003906 -6.945312 10.640625 -6.65625 C 11.285156 -6.375 11.941406 -6.234375 12.609375 -6.234375 Z M 12.609375 -6.234375 "/></g></g></g><g fill="#fafafa" fill-opacity="1"><g transform="translate(130.498212, 53.819776)"><g><path d="M 12.953125 -23.15625 C 14.515625 -23.15625 16 -22.851562 17.40625 -22.25 C 18.8125 -21.644531 20.039062 -20.8125 21.09375 -19.75 C 22.15625 -18.695312 22.992188 -17.46875 23.609375 -16.0625 C 24.234375 -14.65625 24.546875 -13.15625 24.546875 -11.5625 C 24.546875 -9.957031 24.25 -8.453125 23.65625 -7.046875 C 23.070312 -5.640625 22.257812 -4.410156 21.21875 -3.359375 C 20.175781 -2.304688 18.941406 -1.472656 17.515625 -0.859375 C 16.097656 -0.253906 14.578125 0.046875 12.953125 0.046875 C 10.960938 0.046875 9.171875 -0.351562 7.578125 -1.15625 L 7.578125 4.359375 C 7.578125 5.191406 7.269531 5.910156 6.65625 6.515625 C 6.050781 7.128906 5.300781 7.4375 4.40625 7.4375 C 3.613281 7.4375 2.90625 7.15625 2.28125 6.59375 C 1.65625 6.03125 1.328125 5.332031 1.296875 4.5 L 1.296875 -11.5625 C 1.296875 -13.125 1.609375 -14.609375 2.234375 -16.015625 C 2.859375 -17.421875 3.695312 -18.648438 4.75 -19.703125 C 5.800781 -20.765625 7.03125 -21.601562 8.4375 -22.21875 C 9.84375 -22.84375 11.347656 -23.15625 12.953125 -23.15625 Z M 7.578125 -11.5625 C 7.578125 -10.757812 7.71875 -10.03125 8 -9.375 C 8.289062 -8.71875 8.679688 -8.148438 9.171875 -7.671875 C 9.671875 -7.191406 10.25 -6.816406 10.90625 -6.546875 C 11.5625 -6.273438 12.242188 -6.140625 12.953125 -6.140625 C 13.710938 -6.140625 14.410156 -6.28125 15.046875 -6.5625 C 15.691406 -6.851562 16.253906 -7.242188 16.734375 -7.734375 C 17.210938 -8.234375 17.585938 -8.8125 17.859375 -9.46875 C 18.128906 -10.125 18.265625 -10.820312 18.265625 -11.5625 C 18.265625 -12.289062 18.117188 -12.984375 17.828125 -13.640625 C 17.546875 -14.296875 17.164062 -14.863281 16.6875 -15.34375 C 16.207031 -15.820312 15.644531 -16.195312 15 -16.46875 C 14.363281 -16.738281 13.679688 -16.875 12.953125 -16.875 C 12.179688 -16.875 11.46875 -16.726562 10.8125 -16.4375 C 10.15625 -16.15625 9.585938 -15.773438 9.109375 -15.296875 C 8.628906 -14.816406 8.253906 -14.253906 7.984375 -13.609375 C 7.710938 -12.972656 7.578125 -12.289062 7.578125 -11.5625 Z M 7.578125 -11.5625 "/></g></g></g><g fill="#fafafa" fill-opacity="1"><g transform="translate(156.676284, 53.819776)"><g><path d="M 12.953125 -23.15625 C 14.515625 -23.15625 16 -22.851562 17.40625 -22.25 C 18.8125 -21.644531 20.039062 -20.8125 21.09375 -19.75 C 22.15625 -18.695312 22.992188 -17.46875 23.609375 -16.0625 C 24.234375 -14.65625 24.546875 -13.15625 24.546875 -11.5625 C 24.546875 -9.957031 24.25 -8.453125 23.65625 -7.046875 C 23.070312 -5.640625 22.257812 -4.410156 21.21875 -3.359375 C 20.175781 -2.304688 18.941406 -1.472656 17.515625 -0.859375 C 16.097656 -0.253906 14.578125 0.046875 12.953125 0.046875 C 10.960938 0.046875 9.171875 -0.351562 7.578125 -1.15625 L 7.578125 4.359375 C 7.578125 5.191406 7.269531 5.910156 6.65625 6.515625 C 6.050781 7.128906 5.300781 7.4375 4.40625 7.4375 C 3.613281 7.4375 2.90625 7.15625 2.28125 6.59375 C 1.65625 6.03125 1.328125 5.332031 1.296875 4.5 L 1.296875 -11.5625 C 1.296875 -13.125 1.609375 -14.609375 2.234375 -16.015625 C 2.859375 -17.421875 3.695312 -18.648438 4.75 -19.703125 C 5.800781 -20.765625 7.03125 -21.601562 8.4375 -22.21875 C 9.84375 -22.84375 11.347656 -23.15625 12.953125 -23.15625 Z M 7.578125 -11.5625 C 7.578125 -10.757812 7.71875 -10.03125 8 -9.375 C 8.289062 -8.71875 8.679688 -8.148438 9.171875 -7.671875 C 9.671875 -7.191406 10.25 -6.816406 10.90625 -6.546875 C 11.5625 -6.273438 12.242188 -6.140625 12.953125 -6.140625 C 13.710938 -6.140625 14.410156 -6.28125 15.046875 -6.5625 C 15.691406 -6.851562 16.253906 -7.242188 16.734375 -7.734375 C 17.210938 -8.234375 17.585938 -8.8125 17.859375 -9.46875 C 18.128906 -10.125 18.265625 -10.820312 18.265625 -11.5625 C 18.265625 -12.289062 18.117188 -12.984375 17.828125 -13.640625 C 17.546875 -14.296875 17.164062 -14.863281 16.6875 -15.34375 C 16.207031 -15.820312 15.644531 -16.195312 15 -16.46875 C 14.363281 -16.738281 13.679688 -16.875 12.953125 -16.875 C 12.179688 -16.875 11.46875 -16.726562 10.8125 -16.4375 C 10.15625 -16.15625 9.585938 -15.773438 9.109375 -15.296875 C 8.628906 -14.816406 8.253906 -14.253906 7.984375 -13.609375 C 7.710938 -12.972656 7.578125 -12.289062 7.578125 -11.5625 Z M 7.578125 -11.5625 "/></g></g></g><g fill="#fafafa" fill-opacity="1"><g transform="translate(182.854356, 53.819776)"><g><path d="M 12.609375 -23.203125 C 14.140625 -23.203125 15.609375 -22.882812 17.015625 -22.25 C 18.429688 -21.613281 19.671875 -20.757812 20.734375 -19.6875 C 21.804688 -18.613281 22.660156 -17.378906 23.296875 -15.984375 C 23.941406 -14.597656 24.265625 -13.140625 24.265625 -11.609375 C 24.265625 -10.773438 23.953125 -10.035156 23.328125 -9.390625 C 22.703125 -8.753906 21.925781 -8.453125 21 -8.484375 L 8.25 -8.484375 C 9.300781 -6.984375 10.753906 -6.234375 12.609375 -6.234375 C 13.117188 -6.234375 13.550781 -6.28125 13.90625 -6.375 C 14.257812 -6.46875 14.570312 -6.578125 14.84375 -6.703125 C 15.113281 -6.835938 15.382812 -6.953125 15.65625 -7.046875 C 15.925781 -7.140625 16.238281 -7.1875 16.59375 -7.1875 C 17.257812 -7.15625 17.835938 -6.960938 18.328125 -6.609375 C 18.828125 -6.265625 19.195312 -5.828125 19.4375 -5.296875 C 19.675781 -4.765625 19.753906 -4.195312 19.671875 -3.59375 C 19.597656 -2.988281 19.320312 -2.429688 18.84375 -1.921875 C 17.976562 -1.210938 17.019531 -0.722656 15.96875 -0.453125 C 14.914062 -0.179688 13.796875 -0.03125 12.609375 0 C 11.078125 0.0625 9.609375 -0.21875 8.203125 -0.84375 C 6.796875 -1.46875 5.554688 -2.3125 4.484375 -3.375 C 3.410156 -4.445312 2.5625 -5.703125 1.9375 -7.140625 C 1.3125 -8.578125 1 -10.066406 1 -11.609375 C 1 -13.109375 1.3125 -14.5625 1.9375 -15.96875 C 2.5625 -17.375 3.398438 -18.613281 4.453125 -19.6875 C 5.515625 -20.757812 6.75 -21.613281 8.15625 -22.25 C 9.5625 -22.882812 11.046875 -23.203125 12.609375 -23.203125 Z M 16.96875 -14.765625 C 16.425781 -15.441406 15.785156 -15.976562 15.046875 -16.375 C 14.316406 -16.769531 13.503906 -16.96875 12.609375 -16.96875 C 11.679688 -16.96875 10.859375 -16.769531 10.140625 -16.375 C 9.421875 -15.976562 8.789062 -15.441406 8.25 -14.765625 Z M 16.96875 -14.765625 "/></g></g></g><g fill="#fafafa" fill-opacity="1"><g transform="translate(209.080378, 53.819776)"><g><path d="M 4.21875 0.046875 C 3.351562 0.046875 2.632812 -0.226562 2.0625 -0.78125 C 1.488281 -1.34375 1.171875 -2.085938 1.109375 -3.015625 L 1.109375 -11.890625 C 1.140625 -13.421875 1.460938 -14.863281 2.078125 -16.21875 C 2.703125 -17.582031 3.535156 -18.769531 4.578125 -19.78125 C 5.617188 -20.789062 6.832031 -21.585938 8.21875 -22.171875 C 9.613281 -22.765625 11.09375 -23.09375 12.65625 -23.15625 C 13.550781 -23.15625 14.296875 -22.851562 14.890625 -22.25 C 15.484375 -21.644531 15.8125 -20.910156 15.875 -20.046875 C 15.875 -19.179688 15.566406 -18.453125 14.953125 -17.859375 C 14.347656 -17.265625 13.597656 -16.953125 12.703125 -16.921875 C 11.972656 -16.921875 11.285156 -16.785156 10.640625 -16.515625 C 10.003906 -16.242188 9.445312 -15.867188 8.96875 -15.390625 C 8.488281 -14.910156 8.101562 -14.34375 7.8125 -13.6875 C 7.53125 -13.03125 7.390625 -12.320312 7.390625 -11.5625 L 7.390625 -2.828125 C 7.316406 -1.992188 7 -1.304688 6.4375 -0.765625 C 5.882812 -0.222656 5.144531 0.046875 4.21875 0.046875 Z M 4.21875 0.046875 "/></g></g></g><g fill="#2563eb" fill-opacity="1"><g transform="translate(226.396319, 53.819776)"><g><path d="M 20.53125 -21.140625 C 20.53125 -21.140625 20.546875 -21.109375 20.578125 -21.046875 L 20.578125 -3.21875 C 20.578125 -2.320312 20.265625 -1.5625 19.640625 -0.9375 C 19.015625 -0.3125 18.253906 0 17.359375 0 C 16.429688 0 15.65625 -0.3125 15.03125 -0.9375 C 14.40625 -1.5625 14.09375 -2.320312 14.09375 -3.21875 L 14.09375 -8.828125 L 7.8125 -8.828125 L 7.8125 -3.21875 C 7.8125 -2.320312 7.488281 -1.5625 6.84375 -0.9375 C 6.207031 -0.3125 5.425781 0 4.5 0 C 3.613281 0 2.863281 -0.3125 2.25 -0.9375 C 1.644531 -1.5625 1.34375 -2.320312 1.34375 -3.21875 L 1.34375 -21.140625 C 1.34375 -22.453125 1.597656 -23.679688 2.109375 -24.828125 C 2.617188 -25.984375 3.304688 -26.992188 4.171875 -27.859375 C 5.035156 -28.722656 6.050781 -29.398438 7.21875 -29.890625 C 8.382812 -30.390625 9.625 -30.640625 10.9375 -30.640625 C 12.25 -30.640625 13.488281 -30.390625 14.65625 -29.890625 C 15.820312 -29.398438 16.832031 -28.722656 17.6875 -27.859375 C 18.550781 -26.992188 19.238281 -25.984375 19.75 -24.828125 C 20.269531 -23.679688 20.53125 -22.453125 20.53125 -21.140625 Z M 14.09375 -21 C 14.09375 -21.863281 13.78125 -22.609375 13.15625 -23.234375 C 12.539062 -23.859375 11.800781 -24.171875 10.9375 -24.171875 C 10.070312 -24.171875 9.332031 -23.859375 8.71875 -23.234375 C 8.113281 -22.609375 7.8125 -21.863281 7.8125 -21 L 7.8125 -15.296875 L 14.09375 -15.296875 Z M 14.09375 -21 "/></g></g></g><g fill="#2563eb" fill-opacity="1"><g transform="translate(249.457991, 53.819776)"><g><path d="M 12.1875 -30.640625 C 13.59375 -30.640625 14.945312 -30.351562 16.25 -29.78125 C 17.5625 -29.207031 18.722656 -28.429688 19.734375 -27.453125 C 20.742188 -26.472656 21.539062 -25.320312 22.125 -24 C 22.71875 -22.675781 23.015625 -21.257812 23.015625 -19.75 C 23.015625 -18.25 22.734375 -16.832031 22.171875 -15.5 C 21.617188 -14.175781 20.863281 -13.019531 19.90625 -12.03125 C 18.945312 -11.039062 17.800781 -10.257812 16.46875 -9.6875 C 15.144531 -9.113281 13.71875 -8.828125 12.1875 -8.828125 C 11.445312 -8.828125 10.703125 -8.945312 9.953125 -9.1875 C 9.203125 -9.425781 8.472656 -9.816406 7.765625 -10.359375 L 7.765625 -3.265625 C 7.765625 -2.335938 7.441406 -1.5625 6.796875 -0.9375 C 6.160156 -0.3125 5.394531 0 4.5 0 C 3.613281 0 2.859375 -0.3125 2.234375 -0.9375 C 1.609375 -1.5625 1.296875 -2.335938 1.296875 -3.265625 L 1.296875 -19.75 C 1.328125 -21.15625 1.628906 -22.515625 2.203125 -23.828125 C 2.773438 -25.140625 3.554688 -26.296875 4.546875 -27.296875 C 5.546875 -28.304688 6.691406 -29.113281 7.984375 -29.71875 C 9.273438 -30.332031 10.675781 -30.640625 12.1875 -30.640625 Z M 12.1875 -15.296875 C 13.394531 -15.296875 14.429688 -15.71875 15.296875 -16.5625 C 16.160156 -17.414062 16.59375 -18.476562 16.59375 -19.75 C 16.59375 -20.363281 16.472656 -20.941406 16.234375 -21.484375 C 15.992188 -22.023438 15.671875 -22.492188 15.265625 -22.890625 C 14.867188 -23.296875 14.40625 -23.609375 13.875 -23.828125 C 13.351562 -24.054688 12.789062 -24.171875 12.1875 -24.171875 C 11.570312 -24.171875 10.992188 -24.054688 10.453125 -23.828125 C 9.910156 -23.609375 9.4375 -23.296875 9.03125 -22.890625 C 8.632812 -22.492188 8.320312 -22.023438 8.09375 -21.484375 C 7.875 -20.941406 7.765625 -20.363281 7.765625 -19.75 C 7.765625 -19.113281 7.875 -18.523438 8.09375 -17.984375 C 8.320312 -17.441406 8.632812 -16.96875 9.03125 -16.5625 C 9.4375 -16.164062 9.910156 -15.851562 10.453125 -15.625 C 10.992188 -15.40625 11.570312 -15.296875 12.1875 -15.296875 Z M 12.1875 -15.296875 "/></g></g></g><g fill="#2563eb" fill-opacity="1"><g transform="translate(274.053897, 53.819776)"><g><path d="M 4.703125 -30.59375 C 5.566406 -30.59375 6.304688 -30.269531 6.921875 -29.625 C 7.546875 -28.988281 7.859375 -28.238281 7.859375 -27.375 L 7.859375 -3.21875 C 7.859375 -2.320312 7.546875 -1.5625 6.921875 -0.9375 C 6.304688 -0.3125 5.566406 0 4.703125 0 C 3.773438 0 3 -0.3125 2.375 -0.9375 C 1.75 -1.5625 1.4375 -2.320312 1.4375 -3.21875 L 1.4375 -27.375 C 1.4375 -28.238281 1.75 -28.988281 2.375 -29.625 C 3 -30.269531 3.773438 -30.59375 4.703125 -30.59375 Z M 4.703125 -30.59375 "/></g></g></g></svg>